<?xml version="1.0" encoding="UTF-8" ?>
<!DOCTYPE svg PUBLIC "-//W3C//DTD SVG 1.1//EN" "http://www.w3.org/Graphics/SVG/1.1/DTD/svg11.dtd">
<svg xmlns="http://www.w3.org/2000/svg" width="216.095" height="65.921" viewBox="0 0 216.095 65.921">
    <g id="Groupe_16" data-name="Groupe 16" transform="translate(-126.92 -179.879)">
        <g id="Groupe_13" data-name="Groupe 13" transform="translate(126.92 179.879)">
            <path id="Tracé_14" data-name="Tracé 14" d="M143.59,193.455c1.11-.47,2.111-.9,3.113-1.32q4.073-1.715,8.146-3.43,4.483-1.889,8.967-3.782c2.08-.88,4.154-1.771,6.232-2.652,2.436-1.033,4.878-2.056,7.312-3.093,2.172-.925,4.335-1.867,6.505-2.8a1.653,1.653,0,0,1,2.347.6,78.922,78.922,0,0,1,7.1,10.879,65.55,65.55,0,0,1,4.465,10.049c.75,2.2,1.375,4.455,1.972,6.708.39,1.476.645,2.987.931,4.488a61.623,61.623,0,0,1,.958,9.315,81.706,81.706,0,0,1-.252,9.339,2.085,2.085,0,0,1-1.143,1.814q-2.214,1.186-4.421,2.385-7.668,4.162-15.334,8.325c-.935.508-1.863,1.029-2.8,1.533-.817.437-1.011.287-1.114-.624-.122-1.09-.331-2.172-.523-3.255-.2-1.124-.4-2.245-.641-3.361a60.151,60.151,0,0,0-11.523-24.364,64.818,64.818,0,0,0-10.631-10.474,72.894,72.894,0,0,0-9.219-6.019C143.909,193.65,143.795,193.577,143.59,193.455Zm13.534,3.573c.519.451.946.826,1.377,1.194a65.131,65.131,0,0,1,12.831,14.858,62.9,62.9,0,0,1,4.778,9.126c.614,1.452,1.145,2.942,1.671,4.431.435,1.234.8,2.493,1.2,3.737.232.71.523.832,1.2.494.592-.3,1.167-.624,1.751-.937q5.457-2.928,10.915-5.854c1.167-.626,2.34-1.24,3.51-1.859a1.553,1.553,0,0,0,.952-1.45c-.057-1.83-.1-3.662-.258-5.484-.138-1.6-.411-3.184-.645-4.77-.13-.883-.258-1.769-.468-2.637-.443-1.836-.878-3.68-1.431-5.486-.6-1.956-1.275-3.892-2.011-5.8a63.222,63.222,0,0,0-4.223-8.709c-.458-.8-.929-1.592-1.444-2.353a1.072,1.072,0,0,0-1.4-.441,5.314,5.314,0,0,0-.514.183q-5.971,2.526-11.94,5.053-7.426,3.132-14.86,6.247C157.812,196.7,157.515,196.847,157.124,197.028Zm33.38,29.927a2.931,2.931,0,0,0-3.072,3.016,3.074,3.074,0,0,0,6.147.077A3.037,3.037,0,0,0,190.5,226.955Z" transform="translate(-139.615 -176.129)" fill="#680488"></path>
            <path id="Tracé_15" data-name="Tracé 15" d="M158.228,346.64a2.35,2.35,0,0,1-.2-.254,39.034,39.034,0,0,0-10.559-11.523,68.512,68.512,0,0,0-13.065-7.682c-3.506-1.612-7.113-2.971-10.742-4.276-.081-.029-.157-.071-.275-.126a3.092,3.092,0,0,1,.207-.256l8.022-8.121c1.3-1.32,2.6-2.647,3.91-3.967.632-.639.765-.657,1.482-.138a19.872,19.872,0,0,1,1.59,1.248.8.8,0,0,1,.087,1.293,10.422,10.422,0,0,1-.946,1.031q-3.126,2.987-6.261,5.964c-.224.214-.429.451-.636.683-.234.266-.146.49.134.63a10.255,10.255,0,0,0,1.041.433,49.5,49.5,0,0,1,13.37,7.076,40.281,40.281,0,0,1,8.188,8.333,36.508,36.508,0,0,1,4.152,7.155c.214.5.4,1.011.616,1.511A.969.969,0,0,1,158.228,346.64Z" transform="translate(-123.39 -283.603)" fill="#680488"></path>
            <path id="Tracé_16" data-name="Tracé 16" d="M174.67,427.685a32.109,32.109,0,0,0-5.984-3.479,42.269,42.269,0,0,0-9.018-2.808,100.571,100.571,0,0,0-12.562-1.507c-.411-.03-.822-.071-1.3-.114.142-.266.256-.49.38-.71q2.444-4.321,4.89-8.638c.051-.091.1-.181.159-.268.327-.506.628-.563,1.141-.252.352.213.72.4,1.084.6a.456.456,0,0,1,.264.64,6,6,0,0,1-.407.75c-.994,1.584-2,3.162-2.989,4.744-.51.813-.366,1.125.6,1.232a68.744,68.744,0,0,1,7.8,1.249,38.471,38.471,0,0,1,11.334,4.349,20.562,20.562,0,0,1,4.429,3.54C174.674,427.187,174.853,427.366,174.67,427.685Z" transform="translate(-141.398 -363.755)" fill="#680488"></path>
        </g>
        <g id="Groupe_15" data-name="Groupe 15" transform="translate(202.425 199.077)">
            <g id="Groupe_14" data-name="Groupe 14" transform="translate(0 0)">
                <path id="Tracé_17" data-name="Tracé 17" d="M580.241,337.349c-.671.8-1.247,1.476-1.8,2.166a11.387,11.387,0,0,1-3.919,3.452c-2.259,1.05-4.006.567-5.344-1.537-.325-.514-.607-1.052-.967-1.678a22.061,22.061,0,0,1-1.636,1.662,10.291,10.291,0,0,1-2.15,1.486c-2.4,1.108-4.374-.141-4.616-2.781a17.527,17.527,0,0,1,.637-5.621c.381-1.617.679-3.255,1.012-4.883.013-.069.008-.141.016-.21a1.079,1.079,0,0,0-.629-1.215.99.99,0,0,0-1.257.381c-.882,1.116-1.8,2.211-2.592,3.388a43.511,43.511,0,0,0-4.233,8.522,3.971,3.971,0,0,1-2.147,2.472,4.776,4.776,0,0,1-3.106.109c-.464-.128-.589-.448-.41-1.026.226-.738.517-1.457.738-2.2.61-2.03,1.268-4.052,1.774-6.108.581-2.363,1.055-4.752,1.508-7.142.4-2.1.709-4.22,1.042-6.332.093-.589.091-1.193.194-1.777a2.129,2.129,0,0,1,1.737-1.889,6.229,6.229,0,0,1,2.12.013,1.365,1.365,0,0,1,1.135,1.508,11.411,11.411,0,0,1-.274,1.819c-.458,2.23-.938,4.457-1.406,6.686-.12.565-.205,1.137-.344,1.7-.091.37-.277.719-.354,1.09-.043.2-.011.551.109.621a.851.851,0,0,0,.693-.019c.184-.088.3-.333.434-.517a19.1,19.1,0,0,1,4.355-4.478,6.211,6.211,0,0,1,3.434-1.2c1.942-.043,2.632,1.335,2.413,2.917-.317,2.31-.762,4.6-1.156,6.9-.226,1.329-.466,2.653-.687,3.982a1.378,1.378,0,0,0,.384,1.4,1.285,1.285,0,0,0,1.449.021,4.379,4.379,0,0,0,2.291-3,22.862,22.862,0,0,1,2.232-5.938,14.952,14.952,0,0,1,5.669-5.749,6.585,6.585,0,0,1,5.9-.29,1.86,1.86,0,0,0,1.758-.069c1.268-.73,2.525-.37,3.759.1.5.189.538.661.381,1.124-.346,1.028-.756,2.041-1.055,3.082-.455,1.582-.876,3.175-1.239,4.782-.328,1.449-.575,2.92-.823,4.385a2.651,2.651,0,0,0,.021,1.14.987.987,0,0,0,1.593.549,3.907,3.907,0,0,0,.607-.5,9.878,9.878,0,0,0,.666-.749c.93-1.145.98-1.151,1.929-.037.219-.685.45-1.316.623-1.963.581-2.163,1.2-4.321,1.684-6.508a28.252,28.252,0,0,0,.338-3.5,8.339,8.339,0,0,1,.136-1.092,1.173,1.173,0,0,1,1.031-.935c.85-.123,1.7-.229,2.563-.269a1.537,1.537,0,0,1,1.43,1.5,5.67,5.67,0,0,1-.535,3.015c-.29.583-.237.836.189,1.068s.716.077,1.087-.418c.868-1.167,1.731-2.344,2.672-3.452a5.828,5.828,0,0,1,2.413-1.654,1.56,1.56,0,0,1,2.16,1.516,7.144,7.144,0,0,1-1.843,4.433.749.749,0,0,1-.948.2c-1.585-.613-2.259-.394-3.386.932a22.379,22.379,0,0,0-3.617,6.505c-.5,1.273-1,2.547-1.577,3.791-1,2.179-2.659,2.73-4.931,2.094-.442-.123-.6-.346-.474-.857.24-1,.376-2.014.586-3.186a2.452,2.452,0,0,0-.5.274,13.329,13.329,0,0,0-1.087,1.212,8.1,8.1,0,0,1-2.943,2.421,3.518,3.518,0,0,1-2.765.2c-1.524-.5-1.931-1.715-2-3.138-.035-.7-.045-1.407-.075-2.107A4.494,4.494,0,0,0,580.241,337.349Zm-6.63.168c0,.069,0,.141,0,.21-.027.815.077,1.58.988,1.889.86.29,1.4-.248,1.886-.826a37.419,37.419,0,0,0,5.738-9.592,1.824,1.824,0,0,0-.786-2.464,2.9,2.9,0,0,0-4.174.607A17.217,17.217,0,0,0,573.611,337.517Z" transform="translate(-526.593 -314.758)" fill="#680488"></path>
                <path id="Tracé_18" data-name="Tracé 18" d="M760.25,362.744c2.123.192,3.609.325,5.1.463a.781.781,0,0,0,.964-.578A28.153,28.153,0,0,0,767.6,357c.008-.069.043-.155.016-.208-.1-.189-.179-.461-.336-.522a.644.644,0,0,0-.549.221,13.29,13.29,0,0,1-3.165,3.146,7.578,7.578,0,0,1-4.1,1.356,3.084,3.084,0,0,1-3.234-2.4,10.784,10.784,0,0,1,.117-6.129,13.825,13.825,0,0,1,5.157-7.507,8.615,8.615,0,0,1,6.673-1.825,13.36,13.36,0,0,0,4.771.17c.413-.083.823-.2,1.239-.248,1.007-.117,1.46.312,1.383,1.321a6.058,6.058,0,0,1-.24,1.121c-.541,1.923-1.137,3.831-1.62,5.767-.474,1.9-.823,3.839-1.249,5.754-.394,1.774-.756,3.561-1.247,5.309a9.522,9.522,0,0,1-8.625,7.435,12.735,12.735,0,0,1-8.077-1.313,5.292,5.292,0,0,1-1.233-.967,1.52,1.52,0,0,1-.152-2.025,4.962,4.962,0,0,1,3.562-2.307C758.068,362.9,759.475,362.824,760.25,362.744Zm.789-7.142a1.509,1.509,0,0,0,2.4,1.457,4.4,4.4,0,0,0,.85-.621,22.148,22.148,0,0,0,5.218-7.9,1.9,1.9,0,0,0-1.417-2.757,3.886,3.886,0,0,0-4.552,1.646A13.875,13.875,0,0,0,761.038,355.6Zm.1,11.793a4.443,4.443,0,0,0,4.121-2.352c.41-.679.237-1.066-.533-1.177a18.164,18.164,0,0,0-2.142-.237c-1.734-.048-3.471-.083-5.2-.024a1.611,1.611,0,0,0-1,.711c-.109.152.085.626.264.863A5.424,5.424,0,0,0,761.142,367.4Z" transform="translate(-677.569 -334.205)" fill="#680488"></path>
                <path id="Tracé_19" data-name="Tracé 19" d="M488.943,332.232a2.457,2.457,0,0,1-.45,3.524c-4.03,3.082-8.479,4.235-13.431,2.69a6.043,6.043,0,0,1-3.937-4.23,16.645,16.645,0,0,1-.642-7.328,20.9,20.9,0,0,1,4.675-10.983,15.352,15.352,0,0,1,9.507-5.8,11.77,11.77,0,0,1,5.882.461,3.035,3.035,0,0,1,1.129,5.266,6.64,6.64,0,0,1-1.044.8c-.671.432-1.01.309-1.406-.373A13.232,13.232,0,0,0,488,314.363a4.221,4.221,0,0,0-6.225-.61,14.044,14.044,0,0,0-3.45,4.483,18.78,18.78,0,0,0-1.873,5.224,21.4,21.4,0,0,0-.224,6.966,10.714,10.714,0,0,0,.525,2.56,4.083,4.083,0,0,0,3.556,2.6,7.945,7.945,0,0,0,4.867-1.066C486.452,333.836,487.661,333.021,488.943,332.232Z" transform="translate(-470.337 -309.932)" fill="#680488"></path>
                <path id="Tracé_20" data-name="Tracé 20" d="M912.511,365.557a6.449,6.449,0,0,0,6.676-4.806,6.968,6.968,0,0,0,.157-2.547c-.147-1.694-.392-3.38-.634-5.064a30.212,30.212,0,0,0-2.3-8.655c-.41-.874-.37-.962.522-1.388a5.884,5.884,0,0,1,2.605-.765,2.329,2.329,0,0,1,2.427,1.8,8.966,8.966,0,0,1,.28,1.553c.216,1.811.4,3.628.615,5.44.181,1.566.376,3.133.565,4.7a.661.661,0,0,0,.04.258c.1.152.205.37.346.4.125.029.354-.12.442-.253.887-1.372,1.841-2.709,2.608-4.148a54.328,54.328,0,0,0,2.461-5.285,9.948,9.948,0,0,0,.447-2.627,1.917,1.917,0,0,0-.261-.839c-.266-.621-.13-1,.527-1.145a3.61,3.61,0,0,1,3.4.959,1.726,1.726,0,0,1,.432,1.657,16.525,16.525,0,0,1-2.206,5.152,86.093,86.093,0,0,1-8.62,12.413c-1.217,1.454-2.477,2.88-3.8,4.23a9.364,9.364,0,0,1-4.984,2.8,5.089,5.089,0,0,1-2.224-.075,2.2,2.2,0,0,1-1.026-3.388,1.213,1.213,0,0,1,.711-.365A3.72,3.72,0,0,1,912.511,365.557Z" transform="translate(-793.33 -333.52)" fill="#680488"></path>
                <path id="Tracé_21" data-name="Tracé 21" d="M894.959,336.627a5.537,5.537,0,0,1-.248.78,9.071,9.071,0,0,1-6.388,5.261,5.19,5.19,0,0,1-1.465.093,2.552,2.552,0,0,1-2.664-2.728,13.354,13.354,0,0,1,.173-2.938c.413-2.056.932-4.092,1.452-6.124.613-2.392,1.271-4.771,1.92-7.155.533-1.961,1.034-3.929,1.638-5.866.463-1.489,1.377-2.046,3.05-2.075a3.071,3.071,0,0,1,3.178,1.881,4.424,4.424,0,0,1,.107,2.952c-.946,3.055-1.955,6.1-4,8.633a8.131,8.131,0,0,0-1.875,3.6c-.32,1.753-.509,3.532-.676,5.309a.867.867,0,0,0,1.228.863,9.387,9.387,0,0,0,1.6-.78c.962-.57,1.9-1.18,2.848-1.774C894.884,336.579,894.922,336.6,894.959,336.627Zm-3.871-8.7a1.222,1.222,0,0,0,1.177-.8c.466-1,.948-1.99,1.4-3a18.421,18.421,0,0,0,1.468-5.192c.053-.4-.107-.714-.485-.717a.926.926,0,0,0-.639.461,8.3,8.3,0,0,0-.5,1.324c-.645,1.961-1.292,3.918-1.915,5.887C891.4,326.536,891.269,327.2,891.088,327.93Z" transform="translate(-773.943 -314.292)" fill="#680488"></path>
                <path id="Tracé_22" data-name="Tracé 22" d="M854.328,357.75a8.553,8.553,0,0,1-2.014,4.081,8.129,8.129,0,0,1-3.031,2.142c-2.395.972-4.222-.189-4.478-2.808a15.31,15.31,0,0,1,.45-4.856c.376-1.689.773-3.372,1.132-5.067a18.386,18.386,0,0,0,.421-4.71c-.045-.914.312-1.271,1.236-1.319.7-.037,1.4-.056,2.1-.1a1.708,1.708,0,0,1,1.814,2.24c-.594,2.5-1.233,4.995-1.753,7.509-.28,1.348-.36,2.738-.5,4.11a1.852,1.852,0,0,0,.133.77.779.779,0,0,0,1.388.36c.557-.511,1.068-1.068,1.633-1.569.408-.36.868-.656,1.305-.98A2.269,2.269,0,0,0,854.328,357.75Z" transform="translate(-745.016 -335.742)" fill="#680488"></path>
            </g>
            <path id="Tracé_23" data-name="Tracé 23" d="M858.812,315.867c.21-1.185.41-2.376.639-3.559a1.141,1.141,0,0,1,1.068-1.012c1.4-.08,2.8-.152,4.2-.107.852.027,1.14.525.8,1.3a15,15,0,0,1-2.539,4.22,3.85,3.85,0,0,1-3.38,1.1.663.663,0,0,1-.682-.765c.016-.386,0-.772,0-1.159C858.881,315.88,858.847,315.875,858.812,315.867Z" transform="translate(-755.329 -310.844)" fill="#680488"></path>
        </g>
    </g>
</svg>